<svg width="20" height="20" viewBox="0 0 61 60" fill="none" xmlns="http://www.w3.org/2000/svg">
<path fill-rule="evenodd" clip-rule="evenodd" d="M30.5 2.39203C14.8686 2.39203 2.19312 15.0647 2.19312 30.6989C2.19312 43.2061 10.3039 53.8162 21.5511 57.5597C22.9653 57.8222 23.4847 56.9456 23.4847 56.198C23.4847 55.523 23.4584 53.2931 23.4462 50.9278C15.5712 52.6402 13.9095 47.588 13.9095 47.588C12.6219 44.3161 10.7666 43.4461 10.7666 43.4461C8.1978 41.6892 10.9601 41.7258 10.9601 41.7258C13.8022 41.925 15.2994 44.6428 15.2994 44.6428C17.8241 48.9694 21.9214 47.7188 23.5367 46.9959C23.7908 45.1664 24.5244 43.9172 25.3339 43.2103C19.0466 42.4955 12.4367 40.0678 12.4367 29.2214C12.4367 26.1309 13.543 23.6058 15.3537 21.623C15.0594 20.9105 14.0905 18.0314 15.6275 14.1323C15.6275 14.1323 18.0041 13.3716 23.4134 17.0339C25.6719 16.4062 28.0939 16.0908 30.5 16.08C32.9047 16.0908 35.3281 16.4053 37.5908 17.033C42.9936 13.3706 45.3673 14.1314 45.3673 14.1314C46.9081 18.03 45.9392 20.9095 45.6453 21.622C47.4603 23.6048 48.5586 26.13 48.5586 29.2205C48.5586 40.0927 41.9366 42.4861 35.6333 43.1873C36.6491 44.0658 37.5537 45.7889 37.5537 48.4294C37.5537 52.2169 37.5209 55.2652 37.5209 56.1975C37.5209 56.9508 38.0309 57.8334 39.4653 57.5555C50.7059 53.8083 58.8073 43.2014 58.8073 30.6989C58.8069 15.0656 46.1328 2.39203 30.5 2.39203Z" fill="#ffffff"/>
<path d="M12.9144 43.034C12.852 43.1747 12.6308 43.2169 12.4292 43.1208C12.223 43.0289 12.1081 42.8372 12.1747 42.6961C12.2356 42.5508 12.4573 42.5109 12.6622 42.608C12.8684 42.7003 12.9856 42.8939 12.9139 43.0345L12.9144 43.034ZM14.0609 44.3133C13.9264 44.4384 13.6625 44.3803 13.4834 44.182C13.2978 43.9851 13.2631 43.7212 13.4005 43.5942C13.5401 43.4695 13.7961 43.5286 13.9817 43.7254C14.1664 43.9251 14.203 44.1867 14.0614 44.3137L14.0609 44.3133ZM15.1775 45.9431C15.0041 46.064 14.72 45.9511 14.5447 45.6994C14.3712 45.4472 14.3712 45.1448 14.5494 45.0244C14.7242 44.9034 15.0041 45.0126 15.1822 45.262C15.3547 45.5175 15.3547 45.8203 15.1775 45.9431ZM16.7061 47.5186C16.5514 47.6897 16.2205 47.6437 15.9786 47.4108C15.7316 47.1825 15.6626 46.8576 15.8178 46.687C15.9753 46.5155 16.3076 46.5633 16.5509 46.7948C16.798 47.0226 16.8725 47.348 16.707 47.5181L16.7061 47.5186ZM18.8155 48.4331C18.7466 48.6548 18.4287 48.7556 18.1076 48.6609C17.7875 48.5639 17.578 48.3047 17.6436 48.0806C17.7092 47.857 18.0294 47.7525 18.3523 47.8533C18.6725 47.9498 18.882 48.2076 18.8155 48.4331ZM21.1325 48.6023C21.1405 48.8358 20.8686 49.0289 20.5325 49.0336C20.1936 49.0415 19.9194 48.8522 19.9161 48.6225C19.9161 48.3867 20.1823 48.1959 20.5208 48.1894C20.8569 48.1833 21.133 48.3708 21.133 48.6019L21.1325 48.6023ZM23.2878 48.2358C23.3281 48.4631 23.0942 48.697 22.76 48.7594C22.4319 48.8203 22.1272 48.6787 22.085 48.4533C22.0447 48.2198 22.2828 47.9859 22.6109 47.9254C22.9456 47.8678 23.2456 48.0047 23.2878 48.2358Z" fill="#ffffff"/>
</svg>
