<svg width="26" height="26" viewBox="0 0 26 26" fill="none" xmlns="http://www.w3.org/2000/svg">
<path fill-rule="evenodd" clip-rule="evenodd" d="M13 1.49658C6.48692 1.49658 1.20547 6.77685 1.20547 13.2911C1.20547 18.5024 4.58497 22.9233 9.2713 24.4831C9.86055 24.5925 10.077 24.2272 10.077 23.9157C10.077 23.6345 10.066 22.7054 10.0609 21.7198C6.77969 22.4333 6.08731 20.3282 6.08731 20.3282C5.55079 18.9649 4.77774 18.6024 4.77774 18.6024C3.70743 17.8704 4.85841 17.8856 4.85841 17.8856C6.04259 17.9687 6.66641 19.1011 6.66641 19.1011C7.71837 20.9038 9.42559 20.3827 10.0986 20.0815C10.2045 19.3192 10.5102 18.7987 10.8475 18.5042C8.22774 18.2063 5.47364 17.1948 5.47364 12.6755C5.47364 11.3878 5.93458 10.3356 6.68907 9.50947C6.56641 9.2126 6.1627 8.01299 6.80313 6.38838C6.80313 6.38838 7.79337 6.07139 10.0473 7.59736C10.9883 7.33584 11.9975 7.20439 13 7.1999C14.002 7.20439 15.0117 7.33545 15.9545 7.59697C18.2057 6.071 19.1947 6.38799 19.1947 6.38799C19.8367 8.0124 19.433 9.21221 19.3106 9.50908C20.0668 10.3353 20.5244 11.3874 20.5244 12.6751C20.5244 17.2052 17.7652 18.2024 15.1389 18.4946C15.5621 18.8606 15.9391 19.5786 15.9391 20.6788C15.9391 22.2569 15.9254 23.5271 15.9254 23.9155C15.9254 24.2294 16.1379 24.5972 16.7356 24.4813C21.4191 22.92 24.7947 18.5005 24.7947 13.2911C24.7945 6.77724 19.5137 1.49658 13 1.49658Z" fill="white"/>
<path d="M5.67265 18.4309C5.64668 18.4895 5.55449 18.507 5.4705 18.467C5.38457 18.4287 5.33671 18.3488 5.36445 18.29C5.38984 18.2295 5.48222 18.2129 5.56757 18.2533C5.65351 18.2918 5.70234 18.3725 5.67246 18.4311L5.67265 18.4309ZM6.15039 18.9639C6.09433 19.016 5.98437 18.9918 5.90976 18.9092C5.83242 18.8271 5.81796 18.7172 5.87519 18.6643C5.93339 18.6123 6.04003 18.6369 6.11738 18.7189C6.19433 18.8021 6.20957 18.9111 6.15058 18.9641L6.15039 18.9639ZM6.61562 19.643C6.54336 19.6934 6.425 19.6463 6.35195 19.5414C6.27968 19.4363 6.27968 19.3103 6.3539 19.2602C6.42675 19.2098 6.54336 19.2553 6.61757 19.3592C6.68945 19.4656 6.68945 19.5918 6.61562 19.643ZM7.25254 20.2994C7.18808 20.3707 7.05019 20.3516 6.94941 20.2545C6.84648 20.1594 6.81777 20.024 6.88242 19.9529C6.94804 19.8814 7.08652 19.9014 7.18789 19.9978C7.29082 20.0928 7.32187 20.2283 7.25293 20.2992L7.25254 20.2994ZM8.13144 20.6805C8.10273 20.7728 7.97031 20.8148 7.83652 20.7754C7.70312 20.735 7.61582 20.627 7.64316 20.5336C7.6705 20.4404 7.8039 20.3969 7.93847 20.4389C8.07187 20.4791 8.15918 20.5865 8.13144 20.6805ZM9.09687 20.751C9.10019 20.8482 8.98691 20.9287 8.84687 20.9307C8.70566 20.934 8.5914 20.8551 8.59003 20.7594C8.59003 20.6611 8.70097 20.5816 8.84199 20.5789C8.98203 20.5764 9.09707 20.6545 9.09707 20.7508L9.09687 20.751ZM9.99492 20.5982C10.0117 20.693 9.91425 20.7904 9.775 20.8164C9.63828 20.8418 9.51132 20.7828 9.49375 20.6889C9.47695 20.5916 9.57617 20.4941 9.71289 20.4689C9.85234 20.4449 9.97734 20.502 9.99492 20.5982Z" fill="white"/>
</svg>
