<svg width="128" height="128" viewBox="0 0 128 128" fill="none" xmlns="http://www.w3.org/2000/svg">
<g clip-path="url(#clip0_189_8)">
<path d="M66.6881 0C65.8614 0 65.0081 0.0426667 64.1281 0.112C41.5894 1.888 47.5681 25.7493 47.2214 33.7013C46.8161 39.5253 45.6214 44.1173 41.6214 49.808C36.9014 55.4133 30.2774 64.4747 27.1361 73.92C25.6534 78.3573 24.9494 82.9013 25.6054 87.1947C25.3622 87.3915 25.1624 87.6367 25.0188 87.9147C23.6321 89.344 22.6188 91.1147 21.4828 92.3893C20.4214 93.4507 18.8961 93.8133 17.2321 94.5227C15.5628 95.248 13.7228 95.9573 12.6241 98.1493C12.1441 99.1573 11.8988 100.251 11.9201 101.36C11.9201 102.421 12.0641 103.493 12.2134 104.219C12.5228 106.347 12.8321 108.101 12.4268 109.392C11.0988 113.019 10.9334 115.499 11.8614 117.307C12.7894 119.088 14.7148 119.813 16.8748 120.512C21.1948 121.579 27.0614 121.232 31.6694 123.712C36.6081 126.197 41.6214 127.285 45.6214 126.219C48.4268 125.6 50.7948 123.744 52.0641 121.173C55.1948 121.157 58.6241 119.739 64.1174 119.392C67.8454 119.083 72.5121 120.816 77.8614 120.459C77.9948 121.173 78.1974 121.515 78.4694 122.235L78.4854 122.251C80.5708 126.4 84.4214 128.288 88.5334 127.963C92.6454 127.643 97.0241 125.104 100.571 120.997C103.936 116.917 109.547 115.216 113.253 112.981C115.109 111.92 116.608 110.48 116.715 108.432C116.837 106.299 115.648 104.107 112.907 101.093V100.576L112.891 100.56C111.984 99.4933 111.557 97.7067 111.088 95.6213C110.635 93.4827 110.117 91.4293 108.464 90.0427H108.448C108.133 89.7547 107.792 89.6853 107.445 89.3227C107.147 89.1144 106.796 88.996 106.432 88.9813C108.731 82.1653 107.84 75.3813 105.509 69.28C102.667 61.76 97.6961 55.2107 93.9094 50.704C89.6641 45.344 85.5041 40.2667 85.5894 32.7413C85.7281 21.264 86.8481 0.032 66.6881 0ZM69.5094 18.16H69.5788C70.7148 18.16 71.6908 18.4907 72.6934 19.216C73.7068 19.936 74.4534 20.9867 75.0294 22.0587C75.5894 23.44 75.8721 24.5067 75.9148 25.92C75.9148 25.8133 75.9468 25.7067 75.9468 25.6V26.16C75.935 26.1237 75.9279 26.0861 75.9254 26.048L75.9041 25.92C75.8934 27.2161 75.6213 28.4968 75.1041 29.6853C74.855 30.354 74.468 30.9628 73.9681 31.472C73.817 31.3867 73.6602 31.3118 73.4988 31.248C72.9441 31.008 72.4428 30.9067 71.9841 30.5387C71.604 30.3873 71.2114 30.2695 70.8108 30.1867C71.0774 29.8667 71.5894 29.4773 71.7868 29.1307C72.0694 28.448 72.2241 27.7227 72.2561 26.9867V26.88C72.2682 26.1557 72.1582 25.4345 71.9308 24.7467C71.6908 24.032 71.3921 23.68 70.9548 22.9707C70.5068 22.6187 70.0641 22.2667 69.5308 22.2667H69.4454C68.9494 22.2667 68.5068 22.4267 68.0481 22.9707C67.5416 23.4646 67.1659 24.0768 66.9548 24.752C66.6715 25.4297 66.5091 26.1517 66.4748 26.8853V26.9867C66.4854 27.4613 66.5174 27.9413 66.5814 28.4107C65.5521 28.0533 64.2454 27.6907 63.3441 27.3333C63.2903 26.9801 63.2582 26.6239 63.2481 26.2667V26.16C63.2062 24.7521 63.4795 23.3527 64.0481 22.064C64.4854 20.8907 65.2854 19.8987 66.3414 19.2213C67.2531 18.5303 68.3655 18.1611 69.5094 18.16ZM53.7121 18.4747H53.9041C54.6614 18.4747 55.3441 18.7307 56.0321 19.1947C56.8108 19.8827 57.4401 20.7307 57.8668 21.6747C58.3468 22.736 58.6134 23.808 58.6828 25.232V25.2533C58.7201 25.968 58.7148 26.32 58.6721 26.672V27.0987C58.5121 27.136 58.3734 27.1947 58.2294 27.2267C57.4188 27.52 56.7681 27.9467 56.1334 28.2933C56.1974 27.8133 56.2028 27.3333 56.1494 26.8693V26.7893C56.0854 26.08 55.9361 25.7227 55.7121 25.0133C55.5458 24.4698 55.2407 23.979 54.8268 23.5893C54.6953 23.4698 54.5412 23.378 54.3735 23.3193C54.2058 23.2607 54.028 23.2364 53.8508 23.248H53.7388C53.3601 23.28 53.0454 23.4613 52.7468 23.952C52.4065 24.3649 52.1853 24.8628 52.1068 25.392C51.9626 25.9669 51.9211 26.5627 51.9841 27.152V27.232C52.0481 27.952 52.1814 28.2987 52.4108 29.0133C52.6561 29.728 52.9334 30.08 53.2961 30.4427C53.3494 30.4907 53.4028 30.5387 53.4774 30.5707C53.1041 30.8747 52.8534 30.944 52.5388 31.296C52.3392 31.4724 52.0992 31.597 51.8401 31.6587C51.2857 30.9911 50.7947 30.2733 50.3734 29.5147C49.8692 28.3939 49.5884 27.1856 49.5468 25.9573C49.4584 24.7534 49.6033 23.5437 49.9734 22.3947C50.2672 21.3468 50.7818 20.3739 51.4828 19.5413C52.1654 18.832 52.8694 18.4747 53.7121 18.4747ZM61.0188 27.5733C62.7894 27.5733 64.9281 27.92 67.5041 29.7013C69.0668 30.768 70.2934 31.136 73.1148 32.1973H73.1308C74.4908 32.9227 75.2908 33.616 75.6801 34.3253V33.6267C75.8715 34.0145 75.9781 34.4386 75.9928 34.8708C76.0075 35.303 75.93 35.7334 75.7654 36.1333C75.1094 37.7867 73.0134 39.5627 70.0961 40.624V40.6347C68.6668 41.3547 67.4241 42.4107 65.9628 43.1147C64.4908 43.8347 62.8268 44.672 60.5654 44.5387C59.7531 44.5807 58.9406 44.4592 58.1761 44.1813C57.5854 43.8599 57.0121 43.5074 56.4588 43.1253C55.4188 42.4053 54.5228 41.3547 53.1948 40.6453V40.6187H53.1681C51.0348 39.3067 49.8828 37.888 49.5094 36.832C49.1361 35.4027 49.4828 34.3253 50.5388 33.632C51.7334 32.912 52.5654 32.1867 53.1148 31.84C53.6694 31.4453 53.8774 31.296 54.0534 31.1413H54.0641V31.1253C54.9654 30.048 56.3894 28.6187 58.5388 27.92C59.2801 27.728 60.1068 27.5733 61.0241 27.5733H61.0188ZM75.9521 38.9973C77.8614 46.5547 82.3308 57.5307 85.2054 62.8533C86.7308 65.7013 89.7654 71.7013 91.0828 78.9813C91.9148 78.9547 92.8428 79.0773 93.8188 79.3227C97.2641 70.4107 90.9068 60.832 88.0108 58.1707C86.8374 57.104 86.7734 56.384 87.3548 56.384C90.5014 59.232 94.6348 64.768 96.1334 71.088C96.8268 73.9413 96.9868 76.976 96.2454 79.9947C96.6028 80.144 96.9654 80.3147 97.3388 80.352C102.843 83.2 104.875 85.3547 103.899 88.5493V88.32C103.579 88.304 103.259 88.32 102.939 88.32H102.853C103.659 85.8293 101.883 83.92 97.1734 81.792C92.2934 79.6587 88.3948 80 87.7334 84.272C87.6908 84.5013 87.6641 84.624 87.6374 84.992C87.2748 85.1147 86.8961 85.2747 86.5228 85.3333C84.2294 86.7627 82.9921 88.9013 82.2934 91.664C81.6001 94.5067 81.3868 97.8293 81.2001 101.632V101.648C81.0934 103.429 80.2934 106.117 79.4988 108.848C71.4988 114.565 60.4054 117.051 50.9761 110.629C50.3844 109.595 49.664 108.64 48.8321 107.787C48.4346 107.125 47.9402 106.526 47.3654 106.011C48.3361 106.011 49.1681 105.851 49.8454 105.653C50.6124 105.298 51.2123 104.659 51.5201 103.872C52.0961 102.448 51.5201 100.155 49.6801 97.6693C47.8401 95.1787 44.7148 92.3627 40.1441 89.5573C36.7841 87.424 34.8854 84.9173 34.0108 82.112C33.1308 79.264 33.2481 76.3253 33.9308 73.3387C35.2374 67.632 38.5868 62.0853 40.7254 58.6027C41.2961 58.256 40.9228 59.3227 38.5494 63.7973C36.4374 67.8027 32.4694 77.1147 37.8988 84.352C38.1038 79.0714 39.2733 73.873 41.3494 69.0133C44.3574 62.1973 50.6454 50.3253 51.1414 40.9173C51.3974 41.1093 52.2988 41.6373 52.6828 41.9947C53.8454 42.704 54.7094 43.7707 55.8294 44.4747C56.9494 45.5467 58.3734 46.2613 60.5014 46.2613C60.7094 46.2773 60.9014 46.2933 61.0881 46.2933C63.2854 46.2933 64.9814 45.5787 66.4054 44.864C67.9521 44.1493 69.1788 43.0827 70.3521 42.7307H70.3788C72.8694 42.0107 74.8321 40.5867 75.9468 38.9973H75.9521ZM87.6054 86.7733C87.8028 89.9733 89.4348 93.4133 92.3094 94.1173C95.4454 94.832 99.9574 92.3413 101.861 90.0373L102.987 89.984C104.667 89.9467 106.064 90.0373 107.504 91.4133L107.52 91.4293C108.629 92.4907 109.147 94.256 109.605 96.1013C110.059 98.2347 110.427 100.261 111.787 101.787C114.379 104.597 115.227 106.619 115.179 107.867L115.195 107.829V107.925L115.179 107.867C115.099 109.264 114.192 109.973 112.523 111.035C109.163 113.173 103.211 114.832 99.4188 119.408C96.1228 123.339 92.1121 125.488 88.5601 125.76C85.0188 126.043 81.9628 124.693 80.1654 120.971L80.1388 120.955C79.0188 118.821 79.4988 115.488 80.4374 111.941C81.3761 108.379 82.7201 104.773 82.9068 101.824C83.1041 98.016 83.3121 94.704 83.9468 92.1493C84.5868 89.6693 85.5894 87.8987 87.3654 86.9013L87.6054 86.784V86.7733ZM29.9308 87.0347H29.9841C30.2668 87.0347 30.5441 87.0613 30.8214 87.1093C32.8268 87.4027 34.5868 88.8853 36.2774 91.12L41.1308 99.9947L41.1468 100.011C42.4428 102.853 45.1681 105.685 47.4881 108.741C49.8028 111.931 51.5948 114.773 51.3761 117.115V117.147C51.0721 121.115 48.8161 123.269 45.3761 124.048C41.9361 124.768 37.2694 124.059 32.6028 121.573C27.4401 118.715 21.3068 119.072 17.3654 118.363C15.3974 118.011 14.1121 117.296 13.5094 116.229C12.9228 115.163 12.9068 113.019 14.1654 109.669V109.648L14.1761 109.632C14.8001 107.851 14.3361 105.621 14.0321 103.669C13.7388 101.531 13.5894 99.8827 14.2614 98.656C15.1148 96.8747 16.3734 96.5227 17.9414 95.8133C19.5094 95.0933 21.3548 94.736 22.8214 93.3067H22.8321V93.296C24.1974 91.8667 25.2054 90.0907 26.3948 88.8267C27.4081 87.7547 28.4214 87.0347 29.9308 87.0347ZM68.1121 38.64C65.7921 39.712 63.0721 41.4933 60.1761 41.4933C57.2854 41.4933 55.0028 40.0693 53.3494 39.008C52.5281 38.2933 51.8561 37.5787 51.3601 37.2213C50.4854 36.5067 50.5921 35.4453 50.9654 35.4453C51.5468 35.5307 51.6534 36.16 52.0268 36.512C52.5388 36.864 53.1734 37.5787 53.9468 38.288C55.5041 39.3547 57.5734 40.7787 60.1708 40.7787C62.7574 40.7787 65.7868 39.3547 67.6268 38.2933C68.6668 37.5733 70.0001 36.512 71.0828 35.8027C71.9148 35.0773 71.8774 34.3787 72.5708 34.3787C73.2534 34.464 72.7521 35.0933 71.7868 36.1493C70.6038 37.044 69.3755 37.8771 68.1068 38.6453L68.1121 38.64ZM62.3414 30.1973V30.08C62.3094 29.9733 62.4108 29.856 62.4961 29.8133C62.8908 29.584 63.4561 29.6693 63.8828 29.8347C64.2188 29.8347 64.7361 30.192 64.6828 30.5547C64.6508 30.816 64.2294 30.9067 63.9628 30.9067C63.6694 30.9067 63.4721 30.6773 63.2108 30.544C62.9334 30.448 62.4321 30.5013 62.3414 30.1973ZM59.4028 30.1973C59.2961 30.5067 58.8001 30.4587 58.5174 30.5493C58.2668 30.6827 58.0588 30.912 57.7708 30.912C57.5041 30.912 57.0774 30.8053 57.0454 30.5493C56.9921 30.1973 57.5148 29.84 57.8454 29.84C58.2721 29.6747 58.8268 29.5893 59.2268 29.8133C59.3281 29.8613 59.4188 29.9733 59.3868 30.08V30.1867H59.4028V30.1973Z" fill="#8BFFD3"/>
</g>
<defs>
<clipPath id="clip0_189_8">
<rect width="128" height="128" fill="white"/>
</clipPath>
</defs>
</svg>
