<svg width="128" height="128" viewBox="0 0 60 60" fill="none" xmlns="http://www.w3.org/2000/svg">
<g clip-path="url(#clip0_193_2)">
<path d="M30.002 12.0009C22.0018 12.0009 17.0035 15.9994 15.002 23.9995C18.001 20.0006 21.5021 18.5011 25.501 19.5009C27.7843 20.07 29.416 21.7256 31.223 23.5603C34.164 26.5449 37.568 30 45.002 30C53.0016 30 58.0004 26.0011 60.002 17.9991C57.0024 22.0003 53.5018 23.4999 49.5024 22.5C47.2196 21.9305 45.5898 20.2753 43.7804 18.4406C40.8413 15.4561 37.4382 12.0009 30.002 12.0009ZM15.002 30C7.00227 30 2.00352 33.9989 0.00195312 42.0009C3.00102 37.9997 6.50164 36.5002 10.501 37.5C12.7843 38.0695 14.416 39.7247 16.223 41.5594C19.164 44.5439 22.568 47.9991 30.002 47.9991C38.0016 47.9991 43.0004 44.0006 45.002 36.0005C42.0024 39.9994 38.5018 41.4989 34.5024 40.4991C32.2196 39.93 30.5898 38.2744 28.7804 36.4397C25.8413 33.4552 22.4382 30 15.002 30Z" fill="#8BFFD3"/>
</g>
<defs>
<clipPath id="clip0_193_2">
<rect width="60" height="60" fill="white"/>
</clipPath>
</defs>
</svg>
