<svg width="61" height="60" viewBox="0 0 61 60" fill="none" xmlns="http://www.w3.org/2000/svg">
<path d="M54.5938 14.3906L31.9531 1.35938C31.5781 1.125 31.0625 1.03125 30.5 1.03125C29.9375 1.03125 29.4219 1.17188 29.0469 1.35938L6.54687 14.4375C5.75 14.9062 5.1875 16.0781 5.1875 16.9688V43.0781C5.1875 43.5938 5.28125 44.2031 5.65625 44.7188L55.7188 15.6563C55.4375 15.0938 55.0156 14.6719 54.5938 14.3906Z" fill="#9B4F96"/>
<path d="M5.51562 44.6719C5.75 45.0469 6.07813 45.375 6.40625 45.5625L29 58.6406C29.375 58.875 29.8906 58.9688 30.4531 58.9688C31.0156 58.9688 31.5313 58.8281 31.9063 58.6406L54.4063 45.5625C55.2031 45.0937 55.7656 43.9219 55.7656 43.0313V16.9219C55.7656 16.5 55.7188 16.0312 55.4844 15.6094L5.51562 44.6719Z" fill="#68217A"/>
<path d="M40.4844 35.6719C38.5156 39.1406 34.7656 41.4844 30.5 41.4844C24.1719 41.4844 19.0156 36.3281 19.0156 30C19.0156 23.6719 24.1719 18.5156 30.5 18.5156C34.7656 18.5156 38.5156 20.8594 40.4844 24.375L46.5781 20.8594C43.3906 15.2813 37.3906 11.4844 30.5 11.4844C20.2813 11.4844 11.9844 19.7812 11.9844 30C11.9844 40.2188 20.2813 48.5156 30.5 48.5156C37.3438 48.5156 43.3438 44.7656 46.5312 39.2344L40.4844 35.6719ZM45.9688 31.0312L46.3906 29.0156H44.4219V26.8125H46.8125L47.375 23.9062H49.6719L49.1094 26.7656H50.8906L51.4531 23.9062H53.7031L53.1406 26.7656H54.2656V28.9688H52.7188L52.2969 30.9844H54.2656V33.1875H51.875L51.3125 36H49.0156L49.5781 33.1875H47.7969L47.2344 36H44.9844L45.5469 33.1875H44.4219V30.9844H45.9688V31.0312ZM48.2188 31.0312H50L50.4219 29.0156H48.6406L48.2188 31.0312Z" fill="white"/>
</svg>
