<svg width="61" height="60" viewBox="0 0 61 60" fill="none" xmlns="http://www.w3.org/2000/svg">
<path d="M9.31906 53.4952L4.60625 0.633759H56.3937L51.6762 53.4872L30.4686 59.3667L9.31906 53.4952Z" fill="#1572B6"/>
<path d="M30.5005 54.8728L47.6375 50.1216L51.6692 4.95563H30.5005V54.8728Z" fill="#33A9DC"/>
<path d="M30.5005 24.1074H39.0795L39.672 17.4684H30.5005V10.9852H46.7577L46.602 12.7247L45.0083 30.5906H30.5005V24.1074Z" fill="white"/>
<path d="M30.5389 40.9449L30.5103 40.9533L23.2901 39.0038L22.8284 33.833H16.3212L17.2292 44.0128L30.5094 47.6986L30.5389 47.6902V40.9449Z" fill="#EBEBEB"/>
<path d="M38.5283 30.3164L37.7473 38.9986L30.5164 40.9505V47.6958L43.8073 44.0123L43.9048 42.9169L45.0327 30.3164H38.5283Z" fill="white"/>
<path d="M30.5225 10.9852V17.4684H14.8625L14.7326 16.0116L14.4373 12.7247L14.2822 10.9852H30.5225ZM30.5005 24.1083V30.5916H23.3712L23.2414 29.1347L22.9456 25.8478L22.7909 24.1083H30.5005Z" fill="#EBEBEB"/>
</svg>
