<svg width="61" height="60" viewBox="0 0 61 60" fill="none" xmlns="http://www.w3.org/2000/svg">
<g clip-path="url(#clip0_128_80)">
<path d="M21.8281 60.4688C27.4062 60.4688 31.9062 55.9688 31.9062 50.3906V40.3125H21.8281C16.25 40.3125 11.75 44.8125 11.75 50.3906C11.75 55.9688 16.25 60.4688 21.8281 60.4688Z" fill="#0ACF83"/>
<path d="M11.75 30.2344C11.75 24.6562 16.25 20.1562 21.8281 20.1562H31.9062V40.3125H21.8281C16.25 40.3125 11.75 35.8125 11.75 30.2344Z" fill="#A259FF"/>
<path d="M11.75 10.0781C11.75 4.5 16.25 0 21.8281 0H31.9062V20.1562H21.8281C16.25 20.1562 11.75 15.6562 11.75 10.0781Z" fill="#F24E1E"/>
<path d="M31.9062 0H41.9844C47.5625 0 52.0625 4.5 52.0625 10.0781C52.0625 15.6562 47.5625 20.1562 41.9844 20.1562H31.9062V0Z" fill="#FF7262"/>
<path d="M52.0625 30.2344C52.0625 35.8125 47.5625 40.3125 41.9844 40.3125C36.4062 40.3125 31.9062 35.8125 31.9062 30.2344C31.9062 24.6562 36.4062 20.1562 41.9844 20.1562C47.5625 20.1562 52.0625 24.6562 52.0625 30.2344Z" fill="#1ABCFE"/>
</g>
<defs>
<clipPath id="clip0_128_80">
<rect width="60" height="60" fill="white" transform="translate(0.5)"/>
</clipPath>
</defs>
</svg>
