<svg width="61" height="60" viewBox="0 0 61 60" fill="none" xmlns="http://www.w3.org/2000/svg">
<g opacity="0.783">
<path d="M25.5168 4.02303L4.6428 25.363C-3.23154 33.2373 9.76812 32.585 14.4741 35.567C16.664 36.9648 7.48502 38.782 9.34877 40.6923C11.1659 42.5561 20.3449 44.28 22.1621 46.0972C23.9792 47.9609 18.4811 49.9179 20.2983 51.8282C22.0689 53.692 26.3089 51.9214 27.0544 56.1614C27.6135 59.2832 34.8356 57.7456 38.0971 55.0432C40.1006 53.3192 34.6026 53.3192 36.4197 51.4555C40.9859 46.8427 45.0396 49.3588 46.6704 45.1187C47.6022 42.8356 39.7745 41.2048 41.8712 39.7604C46.8567 36.2659 65.0283 34.4953 56.6414 26.1085L35.0685 4.02303C32.3661 1.50697 27.9863 1.50697 25.5168 4.02303ZM49.4194 45.1187C49.4194 46.1904 57.6665 46.7961 57.2006 44.8858C56.5482 41.6242 50.3047 41.9038 49.4194 45.1187ZM14.2877 50.7566C16.1515 52.3873 18.9937 50.3838 19.879 48.1473C18.0618 45.7244 11.3523 48.2405 14.2877 50.7566ZM48.3943 47.3552C46.0646 49.4985 48.8137 51.6884 51.0968 50.244C51.7025 49.8247 51.0502 47.8678 48.3943 47.3552Z" fill="black"/>
<path opacity="0.576" d="M25.5168 4.48898L4.6428 25.8289C-3.23154 33.7498 9.76812 33.0975 14.4741 36.0795C16.664 37.4773 7.48502 39.2945 9.34877 41.2048C11.1659 43.0686 20.3449 44.7926 22.1621 46.6097C23.9792 48.4735 18.4811 50.4304 20.2983 52.3408C22.0689 54.2045 26.3089 52.4339 27.0544 56.674C27.6135 59.7957 34.8356 58.2582 38.0971 55.5557C40.1006 53.8318 34.6026 53.8318 36.4197 51.968C40.9859 47.3552 45.0396 49.8713 46.6704 45.6313C47.6022 43.3482 39.7745 41.7174 41.8712 40.273C46.8101 36.7784 65.0283 35.0079 56.6414 26.621L35.0685 4.48898C32.3661 1.97291 27.9863 1.97291 25.5168 4.48898ZM49.4194 45.6313C49.4194 46.7029 57.6665 47.3086 57.2006 45.3983C56.5482 42.1367 50.3047 42.3697 49.4194 45.6313ZM14.2877 51.2225C16.1515 52.8533 18.9937 50.8498 19.879 48.6133C18.0618 46.237 11.3523 48.753 14.2877 51.2225ZM48.3943 47.8678C46.0646 50.0111 48.8137 52.201 51.0968 50.7566C51.7025 50.3372 51.0502 48.3337 48.3943 47.8678Z" fill="black"/>
</g>
<path d="M25.5168 3.51611L4.6428 24.856C-3.23154 32.7304 9.76812 32.0781 14.4741 35.0601C16.664 36.4579 7.48502 38.275 9.34877 40.1854C11.1659 42.0491 20.3449 43.7731 22.1621 45.5903C23.9792 47.454 18.4811 49.411 20.2983 51.3213C22.0689 53.185 26.3089 51.4145 27.0544 55.6545C27.6135 58.7763 34.8356 57.2387 38.0971 54.5363C40.1006 52.8123 34.6026 52.8123 36.4197 50.9485C40.9859 46.3358 45.0396 48.8518 46.6704 44.6118C47.6022 42.3287 39.7745 40.6979 41.8712 39.2535C46.8101 35.759 65.0283 33.9884 56.6414 25.6015L35.0685 3.51611C32.3661 1.00004 27.9863 1.00004 25.5168 3.51611ZM49.4194 44.6118C49.4194 45.6835 57.6665 46.2892 57.2006 44.3788C56.5482 41.1639 50.3047 41.3968 49.4194 44.6118ZM14.2877 50.2496C16.1515 51.8804 18.9937 49.8769 19.879 47.6404C18.0618 45.2175 11.3523 47.7802 14.2877 50.2496ZM48.3943 46.8483C46.0646 48.9916 48.8137 51.1815 51.0968 49.7371C51.7025 49.3178 51.0502 47.3608 48.3943 46.8483Z" fill="black"/>
<mask id="mask0_128_137" style="mask-type:luminance" maskUnits="userSpaceOnUse" x="2" y="2" width="57" height="55">
<path d="M25.6214 3.99068L5.1661 24.9539C-2.5912 32.7112 10.1529 32.0647 14.7704 34.9737C16.8944 36.3589 7.93657 38.1597 9.73737 40.0067C11.5382 41.8537 20.496 43.516 22.2968 45.3168C24.0976 47.1637 18.6952 49.1031 20.4498 50.9039C22.2045 52.7508 26.3602 50.9962 27.0989 55.1519C27.653 58.2456 34.7639 56.6757 37.9038 54.0437L36.2877 50.5345C40.7666 46.0094 44.7376 48.5028 46.3537 44.3471C47.231 42.1307 39.6122 40.5146 41.6439 39.0832C46.4922 35.6663 64.3617 33.9117 56.1426 25.6926L34.9486 3.99068C32.3628 1.54343 28.0224 1.54343 25.6214 3.99068ZM20.6807 36.1281C21.1424 36.1281 35.9644 38.1136 30.2388 39.6373C28.0686 40.2376 18.0488 36.1281 20.6807 36.1281ZM49.078 44.3471C49.078 45.4091 57.1585 45.9632 56.7429 44.1162C56.0965 40.9302 49.9553 41.2072 49.078 44.3471ZM14.5857 49.888C16.4327 51.458 19.2031 49.5186 20.0804 47.3023C18.3258 44.9474 11.7229 47.4408 14.5857 49.888ZM48.1083 46.5635C45.8458 48.6413 48.5239 50.8115 50.7402 49.3801C51.2943 48.9645 50.6479 47.0252 48.1083 46.5635Z" fill="white"/>
</mask>
<g mask="url(#mask0_128_137)">
<path d="M25.6214 3.99068L5.1661 24.9539C-2.5912 32.7112 10.1529 32.0647 14.7704 34.9737C16.8944 36.3589 7.93657 38.1597 9.73737 40.0067C11.5382 41.8537 20.496 43.516 22.2968 45.3168C24.0976 47.1637 18.6952 49.1031 20.4498 50.9039C22.2045 52.7508 26.3602 50.9962 27.0989 55.1519C27.653 58.2456 34.7639 56.6757 37.9038 54.0437L36.2877 50.5345C40.7666 46.0094 44.7376 48.5028 46.3537 44.3471C47.231 42.1307 39.6122 40.5146 41.6439 39.0832C46.4922 35.6663 64.3617 33.9117 56.1426 25.6926L34.9486 3.99068C32.3628 1.54343 28.0224 1.54343 25.6214 3.99068ZM20.6807 36.1281C21.1424 36.1281 35.9644 38.1136 30.2388 39.6373C28.0686 40.2376 18.0488 36.1281 20.6807 36.1281ZM49.078 44.3471C49.078 45.4091 57.1585 45.9632 56.7429 44.1162C56.0965 40.9302 49.9553 41.2072 49.078 44.3471ZM14.5857 49.888C16.4327 51.458 19.2031 49.5186 20.0804 47.3023C18.3258 44.9474 11.7229 47.4408 14.5857 49.888ZM48.1083 46.5635C45.8458 48.6413 48.5239 50.8115 50.7402 49.3801C51.2943 48.9645 50.6479 47.0252 48.1083 46.5635Z" fill="url(#paint0_linear_128_137)"/>
</g>
<path opacity="0.505" d="M6.50654 26.0209C0.822105 31.6121 10.7932 30.0745 18.4345 33.0565L34.2764 5.24006C31.9001 2.77059 28.8249 3.00356 26.635 5.24006L6.50654 26.0209Z" fill="url(#paint1_linear_128_137)"/>
<path d="M33.8105 5.0537L42.0576 13.4406C42.8031 14.1861 42.8031 15.7703 42.3837 16.2362L38.2835 12.8815L37.4914 17.7738L34.0901 15.9566L28.592 19.4512L26.7748 12.136L23.8394 18.5193L16.431 18.4261C15.0332 18.4261 15.2196 16.9817 16.664 15.4907C19.5528 12.3223 25.1441 6.87086 26.9146 5.00711C28.7784 3.14336 31.9467 3.23654 33.8105 5.0537Z" fill="url(#paint2_linear_128_137)"/>
<path opacity="0.217" d="M22.4882 44.705C22.4882 44.705 23.3735 46.0562 23.2803 46.7085C23.0939 47.9665 20.3915 48.6189 20.9972 49.7371C21.6029 50.8554 23.7462 50.203 25.5168 51.3679C27.2874 52.5327 26.8214 54.8624 28.126 55.4681C30.6421 56.633 37.3516 53.4646 36.9789 53.5578C36.6527 53.6044 30.4091 54.909 29.0113 53.7908C27.4271 52.4861 26.9612 51.6009 25.7498 50.8088C24.6315 50.1099 23.0939 49.7837 22.7212 49.2246C22.3484 48.6189 23.4667 47.8734 23.5133 46.7551C23.6065 46.0096 22.4882 44.705 22.4882 44.705Z" fill="url(#paint3_radial_128_137)"/>
<g opacity="0.276">
<path d="M22.4882 44.705C22.4882 44.705 23.3735 46.0562 23.2803 46.7085C23.0939 47.9665 20.3915 48.6189 20.9972 49.7371C21.6029 50.8554 23.7462 50.203 25.5168 51.3679C27.2874 52.5327 26.8214 54.8624 28.126 55.4681C30.6421 56.633 37.3516 53.4646 36.9789 53.5578C25.8895 53.6044 27.9863 50.7622 23.6996 48.8518C23.0939 48.5723 23.4201 47.8268 23.5133 46.7085C23.6065 46.0096 22.4882 44.705 22.4882 44.705Z" fill="url(#paint4_radial_128_137)"/>
</g>
<path opacity="0.453" d="M41.3121 38.8808C51.2366 35.2464 54.4515 34.7339 57.7131 31.4258C53.8924 34.6407 45.8783 36.3647 39.3552 39.2069L41.3121 38.8808Z" fill="url(#paint5_radial_128_137)"/>
<g opacity="0.512">
<path d="M41.3121 38.4148C57.6665 32.6372 54.9175 32.6372 57.7131 30.9598C52.4946 32.9634 42.8031 33.1497 39.3552 38.741L41.3121 38.4148Z" fill="url(#paint6_radial_128_137)"/>
</g>
<path opacity="0.286" d="M55.5698 43.0276C55.5698 43.4004 54.6379 43.6799 53.4265 43.6799C52.2616 43.6799 51.2831 43.4004 51.2831 43.0276C51.2831 42.6549 52.215 42.3753 53.4265 42.3753C54.6379 42.3753 55.5698 42.6549 55.5698 43.0276Z" fill="url(#paint7_linear_128_137)"/>
<g opacity="0.621">
<path d="M56.3153 43.7731C56.3153 44.5652 55.0107 45.1709 53.4731 45.1709C51.8889 45.1709 50.6309 44.5186 50.6309 43.7731C50.6309 42.981 51.9355 42.3753 53.4731 42.3753C55.0573 42.3753 56.3153 43.0276 56.3153 43.7731Z" fill="url(#paint8_linear_128_137)"/>
</g>
<path d="M49.5592 44.5652C50.5843 45.4971 56.1755 45.963 57.1074 44.2856C55.2902 45.5903 51.2832 45.1243 49.5592 44.5652Z" fill="url(#paint9_radial_128_137)"/>
<path opacity="0.286" d="M49.5592 47.687C49.7456 48.1063 49.6524 48.5723 49.2796 48.7586C48.9069 48.945 48.4409 48.7586 48.2546 48.3859C48.0682 47.9665 48.1614 47.5006 48.5341 47.3142C48.9069 47.0813 49.3728 47.2676 49.5592 47.687Z" fill="url(#paint10_linear_128_137)"/>
<g opacity="0.621">
<path d="M49.9785 47.8734C50.3047 48.4791 50.1183 49.178 49.5592 49.4575C49 49.7371 48.3477 49.4575 48.0216 48.8518C47.6954 48.2461 47.8818 47.5472 48.4409 47.2676C49 46.9881 49.6524 47.2676 49.9785 47.8734Z" fill="url(#paint11_linear_128_137)"/>
</g>
<path d="M48.1614 49.5507C48.9535 50.2031 52.0287 50.2497 50.8638 48.4325C51.19 49.8769 49.0933 49.7371 48.1614 49.5507Z" fill="url(#paint12_radial_128_137)"/>
<path d="M10.467 39.999C10.467 39.8592 20.904 43.1674 22.6746 44.9845C21.2302 43.5401 13.7752 40.2786 12.6569 40.232C11.5387 40.1854 10.6068 40.0922 10.467 39.999Z" fill="url(#paint13_radial_128_137)"/>
<path opacity="0.286" d="M18.3098 47.1655C18.397 47.4249 17.6433 47.7994 16.5784 48.0332C15.5136 48.267 14.6291 48.2523 14.5418 47.9928C14.4546 47.7334 15.2083 47.359 16.2732 47.1252C17.338 46.8914 18.2226 46.9061 18.3098 47.1655Z" fill="url(#paint14_linear_128_137)"/>
<g opacity="0.621">
<path d="M19.1395 47.5405C19.3249 48.0918 18.3198 48.7652 16.9683 49.0619C15.6167 49.3587 14.3173 49.1564 14.1429 48.6376C13.9575 48.0863 14.9626 47.4129 16.3141 47.1162C17.6657 46.8194 18.9542 46.9892 19.1395 47.5405Z" fill="url(#paint15_linear_128_137)"/>
</g>
<g opacity="0.616">
<path d="M13.8218 48.8518C13.8218 48.8518 14.3809 50.3428 15.9185 50.436C17.5027 50.5292 19.2732 48.5723 19.413 47.8734C19.1335 48.4791 17.6425 50.2962 15.7321 50.2496C14.6139 50.2496 13.8218 48.8518 13.8218 48.8518Z" fill="url(#paint16_radial_128_137)"/>
</g>
<path d="M30.2228 2.35126C28.6386 2.35126 27.101 2.91038 26.0293 4.02863L5.20192 25.3686C3.29158 27.2789 2.82564 28.5369 2.96542 29.2358C3.01201 29.6086 3.19839 29.8882 3.57114 30.2143C3.94389 30.5405 4.50301 30.8666 5.15533 31.1462C6.50655 31.7053 8.27711 32.1713 10.0477 32.6372C11.8182 33.1031 13.5422 33.6157 14.8468 34.4544C15.0332 34.5941 15.2196 34.7339 15.3594 34.9669C15.4991 35.1999 15.5457 35.4794 15.4991 35.759C15.406 36.2715 15.0798 36.5511 14.7536 36.784C14.1013 37.2966 13.216 37.6693 12.3308 38.0887C11.4455 38.508 10.5602 38.9739 10.0943 39.3001C9.8613 39.4865 9.76811 39.6263 9.8147 39.6263C9.8147 39.6263 9.76811 39.4865 9.8613 39.5797C10.1409 39.8592 11.0261 40.3718 12.1444 40.7911C13.2626 41.2104 14.6139 41.6764 15.9651 42.0957C17.3163 42.5617 18.7141 42.981 19.879 43.4469C21.0438 43.9129 22.0223 44.3322 22.628 44.9845C22.9541 45.3107 23.1871 45.73 23.2337 46.1028C23.2803 46.5221 23.1871 46.8949 23.0007 47.221C22.6746 47.8734 22.162 48.3859 21.7427 48.8518C21.2768 49.3178 20.8574 49.7837 20.7176 50.1099C20.6245 50.2496 20.6245 50.3428 20.6245 50.436C20.6245 50.4826 20.6245 50.5758 20.7642 50.7156C21.37 51.3679 22.6746 51.4611 24.1656 51.7872C24.9111 51.9736 25.7032 52.2066 26.3555 52.8123C27.0078 53.418 27.5203 54.2567 27.7533 55.4681C27.8465 55.9807 28.126 56.2136 28.7318 56.4C29.3841 56.5864 30.3625 56.633 31.4342 56.4932C33.5775 56.167 36.1402 55.142 37.5846 53.9305L37.6778 53.8374C37.5846 53.7442 37.3516 53.6044 36.9789 53.418C36.5129 53.185 36.0004 52.9987 35.581 52.4861C35.3947 52.2066 35.2549 51.8338 35.3015 51.4145C35.3481 50.9951 35.581 50.669 35.8606 50.3894C38.2835 47.9665 40.6132 47.3608 42.3837 46.8949C43.269 46.6619 44.0145 46.4289 44.5736 46.1028C45.1328 45.73 45.5987 45.2641 45.9715 44.3322C46.018 44.239 46.018 44.1924 45.9715 44.0993C45.9249 43.9595 45.7851 43.7731 45.5521 43.5867C45.0862 43.1674 44.2941 42.748 43.502 42.2821C42.7099 41.8628 41.9644 41.4434 41.4053 40.9309C41.1257 40.6513 40.8461 40.3718 40.7995 39.8592C40.753 39.3467 41.0791 38.9274 41.4519 38.6478C42.8497 37.6693 44.9464 36.9238 47.2295 36.1317C49.5126 35.3396 51.982 34.5009 53.939 33.5691C55.9425 32.6372 57.3869 31.5655 57.8529 30.4939C58.0858 29.9348 58.1324 29.4222 57.8995 28.6767C57.6665 27.9312 57.1074 27.0925 56.0823 26.1141L34.556 4.07523C33.3445 2.91038 31.7604 2.35126 30.2228 2.35126ZM53.4265 42.8412C52.0752 42.8878 50.8638 43.4935 50.3513 44.472C50.491 44.5186 50.6308 44.6118 50.8638 44.6584C51.5627 44.7982 52.5412 44.9379 53.473 44.9379C54.4049 44.9379 55.3834 44.8914 55.9891 44.705C56.2221 44.6118 56.3619 44.5652 56.455 44.5186C56.3153 43.9595 56.0357 43.5867 55.4766 43.3072C54.964 42.9344 54.172 42.7946 53.4265 42.8412ZM17.7822 47.4074C16.7106 47.3142 15.406 47.7336 14.7536 48.2927C14.4275 48.5723 14.2877 48.8052 14.2877 48.945C14.2877 49.0848 14.3343 49.3178 14.7536 49.6905C15.4525 50.2962 16.198 50.203 17.0833 49.7371C17.8288 49.3178 18.4811 48.5723 18.9005 47.7802C18.6209 47.5938 18.2482 47.454 17.7822 47.4074ZM48.6273 47.7336C48.3943 48.0131 48.3011 48.2927 48.2545 48.4791C48.2545 48.7586 48.3011 48.945 48.4875 49.1314C48.8603 49.5041 49.6524 49.6439 50.491 49.178C50.491 49.0848 50.4445 48.945 50.3047 48.7586C50.1183 48.3859 49.5126 47.9665 48.6273 47.7336Z" stroke="url(#paint17_radial_128_137)" stroke-width="0.485072"/>
<g opacity="0.325">
<path d="M18.7607 35.759C17.5027 36.1317 13.449 37.6693 14.0081 38.8342C14.5673 39.9524 24.0258 40.4183 25.4702 43.7731C26.1225 45.2175 24.0258 46.3358 24.5383 47.8268C24.9577 48.9916 28.0795 51.8804 30.083 53.2782C31.6672 54.3499 33.7173 52.3929 32.8786 50.8088C31.574 48.2461 37.4914 45.1243 40.1472 43.6799C41.6848 42.8412 36.9323 38.741 36.9323 38.741L18.7607 35.759Z" fill="url(#paint18_linear_128_137)"/>
</g>
<path d="M19.2266 36.9238C20.3449 37.7625 22.5814 37.25 23.9326 37.8557C27.1476 39.3001 31.108 40.9309 30.3625 38.0421L29.5704 38.741V37.4364L27.6601 37.9023C27.6601 37.9023 26.1691 36.7374 25.5168 36.3181C25.377 36.2249 24.6315 36.9704 24.6315 36.9704L24.4917 36.1783C23.5598 36.0851 22.628 36.0385 21.7893 36.0385C19.8323 36.0851 18.5277 36.3647 19.2266 36.9238Z" fill="url(#paint19_linear_128_137)"/>
<g opacity="0.478">
<path d="M40.3336 39.5331C39.9143 41.1173 45.6919 43.3072 45.226 44.4254C44.2941 46.8483 39.0756 45.2175 35.0685 50.2962C34.5094 51.0417 35.8606 53.651 35.6742 53.3248C35.4879 52.9987 34.0901 50.8554 34.4628 49.7837C35.5811 46.4755 46.5772 45.2175 44.5736 43.6333C43.4088 42.748 39.262 40.232 40.3336 39.5331Z" fill="url(#paint20_radial_128_137)"/>
</g>
<path opacity="0.586" d="M53.3333 42.8412C53.3333 42.981 53.0537 43.1208 52.681 43.1208C52.3082 43.1208 52.0286 42.981 52.0286 42.8412C52.0286 42.7015 52.3082 42.5617 52.681 42.5617C53.0537 42.5617 53.3333 42.7015 53.3333 42.8412ZM49.0932 47.687C49.0932 47.8268 48.9069 47.9666 48.6739 47.9666C48.4409 47.9666 48.2545 47.8268 48.2545 47.687C48.2545 47.5472 48.4409 47.4074 48.6739 47.4074C48.9069 47.4074 49.0932 47.5472 49.0932 47.687ZM17.0833 47.454C17.0833 47.5938 16.7572 47.7336 16.3844 47.7336C16.0117 47.7336 15.6855 47.5938 15.6855 47.454C15.6855 47.3142 16.0117 47.1745 16.3844 47.1745C16.7572 47.1745 17.0833 47.3142 17.0833 47.454Z" fill="white"/>
<path opacity="0.251" d="M16.664 35.8988C13.0297 38.1353 7.43842 38.9274 13.5888 40.4184C12.8433 38.7876 15.173 38.974 16.664 35.8988Z" fill="url(#paint21_linear_128_137)"/>
<g opacity="0.363">
<path d="M29.5239 56.2602C29.5239 56.2602 35.1151 55.7477 36.3731 54.1169C37.1186 53.185 33.3911 52.0668 34.1832 51.1349C37.2118 47.687 39.7745 47.8268 43.3156 46.3358C46.8567 44.8914 45.5521 44.1924 44.3873 43.5401C42.4303 42.4685 38.0505 41.3036 39.4949 38.6944C40.9393 36.0851 53.6594 32.4508 53.6594 32.4508C57.5267 31.1462 57.0142 28.7699 55.1504 26.7664L43.8281 15.5373C43.8281 15.5373 44.3873 26.2539 42.1042 30.8666C39.262 36.5045 24.2122 42.8412 30.5023 43.5401C32.7388 43.7731 33.8105 44.5652 34.6958 46.2426C36.5595 49.7837 29.5239 56.2602 29.5239 56.2602Z" fill="url(#paint22_linear_128_137)"/>
</g>
<defs>
<linearGradient id="paint0_linear_128_137" x1="48.4992" y1="17.5975" x2="37.5804" y2="27.4703" gradientUnits="userSpaceOnUse">
<stop stop-color="#C0CDF9"/>
<stop offset="1" stop-color="#07092D" stop-opacity="0.288"/>
</linearGradient>
<linearGradient id="paint1_linear_128_137" x1="15.9928" y1="13.6618" x2="28.6739" y2="26.3429" gradientUnits="userSpaceOnUse">
<stop stop-color="white"/>
<stop offset="1" stop-color="white" stop-opacity="0"/>
</linearGradient>
<linearGradient id="paint2_linear_128_137" x1="24.4588" y1="11.3266" x2="39.5392" y2="26.407" gradientUnits="userSpaceOnUse">
<stop stop-color="white"/>
<stop offset="1" stop-color="white" stop-opacity="0"/>
</linearGradient>
<radialGradient id="paint3_radial_128_137" cx="0" cy="0" r="1" gradientUnits="userSpaceOnUse" gradientTransform="translate(20.9098 54.8953) scale(12.7976 8.55752)">
<stop stop-color="white"/>
<stop offset="1" stop-color="white" stop-opacity="0"/>
</radialGradient>
<radialGradient id="paint4_radial_128_137" cx="0" cy="0" r="1" gradientUnits="userSpaceOnUse" gradientTransform="translate(27.7122 55.202) scale(16.3258 10.9251)">
<stop stop-color="white"/>
<stop offset="1" stop-color="white" stop-opacity="0"/>
</radialGradient>
<radialGradient id="paint5_radial_128_137" cx="0" cy="0" r="1" gradientUnits="userSpaceOnUse" gradientTransform="translate(48.5357 35.3135) scale(9.11072 3.86253)">
<stop stop-color="white"/>
<stop offset="1" stop-color="white" stop-opacity="0"/>
</radialGradient>
<radialGradient id="paint6_radial_128_137" cx="0" cy="0" r="1" gradientUnits="userSpaceOnUse" gradientTransform="translate(50.476 36.3857) scale(9.11072 3.86253)">
<stop stop-color="white"/>
<stop offset="1" stop-color="white" stop-opacity="0"/>
</radialGradient>
<linearGradient id="paint7_linear_128_137" x1="53.449" y1="42.0231" x2="53.4823" y2="43.7021" gradientUnits="userSpaceOnUse">
<stop stop-color="white"/>
<stop offset="1" stop-color="white" stop-opacity="0"/>
</linearGradient>
<linearGradient id="paint8_linear_128_137" x1="53.4719" y1="41.8005" x2="53.4719" y2="44.3525" gradientUnits="userSpaceOnUse">
<stop stop-color="white"/>
<stop offset="1" stop-color="white" stop-opacity="0"/>
</linearGradient>
<radialGradient id="paint9_radial_128_137" cx="0" cy="0" r="1" gradientUnits="userSpaceOnUse" gradientTransform="translate(53.3447 44.8601) scale(3.74904 0.555941)">
<stop stop-color="white"/>
<stop offset="1" stop-color="white" stop-opacity="0"/>
</radialGradient>
<linearGradient id="paint10_linear_128_137" x1="48.4511" y1="47.2158" x2="49.2777" y2="48.6762" gradientUnits="userSpaceOnUse">
<stop stop-color="white"/>
<stop offset="1" stop-color="white" stop-opacity="0"/>
</linearGradient>
<linearGradient id="paint11_linear_128_137" x1="48.1352" y1="46.6865" x2="49.2928" y2="48.9601" gradientUnits="userSpaceOnUse">
<stop stop-color="white"/>
<stop offset="1" stop-color="white" stop-opacity="0"/>
</linearGradient>
<radialGradient id="paint12_radial_128_137" cx="0" cy="0" r="1" gradientUnits="userSpaceOnUse" gradientTransform="translate(49.831 50.0005) rotate(-26.9028) scale(1.62246 0.551445)">
<stop stop-color="white"/>
<stop offset="1" stop-color="white" stop-opacity="0"/>
</radialGradient>
<radialGradient id="paint13_radial_128_137" cx="0" cy="0" r="1" gradientUnits="userSpaceOnUse" gradientTransform="translate(16.3195 41.6875) scale(6.05159 2.46205)">
<stop stop-color="white" stop-opacity="0.33"/>
<stop offset="1" stop-color="white" stop-opacity="0"/>
</radialGradient>
<linearGradient id="paint14_linear_128_137" x1="16.1659" y1="46.8743" x2="16.2148" y2="47.757" gradientUnits="userSpaceOnUse">
<stop stop-color="white"/>
<stop offset="1" stop-color="white" stop-opacity="0"/>
</linearGradient>
<linearGradient id="paint15_linear_128_137" x1="16.1763" y1="46.7167" x2="16.1065" y2="48.0162" gradientUnits="userSpaceOnUse">
<stop stop-color="white"/>
<stop offset="1" stop-color="white" stop-opacity="0"/>
</linearGradient>
<radialGradient id="paint16_radial_128_137" cx="0" cy="0" r="1" gradientUnits="userSpaceOnUse" gradientTransform="translate(16.3829 50.4109) rotate(-15.4957) scale(3.42835 1.28071)">
<stop stop-color="white"/>
<stop offset="1" stop-color="white" stop-opacity="0"/>
</radialGradient>
<radialGradient id="paint17_radial_128_137" cx="0" cy="0" r="1" gradientUnits="userSpaceOnUse" gradientTransform="translate(32.7518 8.24933) scale(47.4024 46.6548)">
<stop stop-color="white"/>
<stop offset="1" stop-color="white" stop-opacity="0"/>
</radialGradient>
<linearGradient id="paint18_linear_128_137" x1="19.4402" y1="42.3627" x2="33.6661" y2="46.1242" gradientUnits="userSpaceOnUse">
<stop stop-color="white"/>
<stop offset="1" stop-color="white" stop-opacity="0"/>
</linearGradient>
<linearGradient id="paint19_linear_128_137" x1="25.6611" y1="35.6784" x2="24.062" y2="39.3424" gradientUnits="userSpaceOnUse">
<stop stop-color="#EEEEEC"/>
<stop offset="1" stop-color="#EEEEEC" stop-opacity="0"/>
</linearGradient>
<radialGradient id="paint20_radial_128_137" cx="0" cy="0" r="1" gradientUnits="userSpaceOnUse" gradientTransform="translate(39.9518 46.2737) scale(7.4534 9.47581)">
<stop stop-color="white"/>
<stop offset="1" stop-color="white" stop-opacity="0"/>
</radialGradient>
<linearGradient id="paint21_linear_128_137" x1="13.3884" y1="37.3265" x2="15.629" y2="39.1066" gradientUnits="userSpaceOnUse">
<stop stop-color="white"/>
<stop offset="1" stop-color="white" stop-opacity="0"/>
</linearGradient>
<linearGradient id="paint22_linear_128_137" x1="44.1038" y1="45.4471" x2="37.4539" y2="27.5421" gradientUnits="userSpaceOnUse">
<stop stop-color="#729FCF"/>
<stop offset="1" stop-color="#729FCF" stop-opacity="0"/>
</linearGradient>
</defs>
</svg>
