<svg width="61" height="60" viewBox="0 0 61 60" fill="none" xmlns="http://www.w3.org/2000/svg">
<g clip-path="url(#clip0_128_134)">
<path d="M11.1252 0.75H49.8748C55.7502 0.75 60.5 5.49984 60.5 11.3752V48.6248C60.5 54.5002 55.7502 59.25 49.8748 59.25H11.1252C5.24984 59.25 0.5 54.5002 0.5 48.6248V11.3752C0.5 5.49984 5.24984 0.75 11.1252 0.75Z" fill="#001E36"/>
<path d="M22.0002 15.6248C21.2502 15.6248 20.5002 15.6248 19.7253 15.6502C18.95 15.675 18.2248 15.675 17.5498 15.7003C16.8748 15.7252 16.25 15.7252 15.65 15.75C15.0748 15.7748 14.675 15.7748 14.2498 15.7748C14.075 15.7748 14 15.8747 14 16.05V41.775C14 42 14.0998 42.1003 14.3 42.1003H19.1502C19.325 42.075 19.4502 41.925 19.4248 41.7502V33.7252C19.8997 33.7252 20.2498 33.7252 20.5002 33.75C20.75 33.7748 21.1498 33.7748 21.7498 33.7748C23.8002 33.7748 25.6752 33.5498 27.3748 32.925C29 32.325 30.4002 31.275 31.4 29.8748C32.3998 28.4752 32.9 26.7 32.9 24.5498C32.9 23.4248 32.7003 22.35 32.3253 21.3C31.9282 20.2301 31.3057 19.2582 30.5 18.45C29.5493 17.5264 28.4049 16.826 27.1498 16.3997C25.7497 15.8747 24.05 15.6248 22.0002 15.6248ZM22.558 20.5491C23.4486 20.5659 24.3158 20.7216 25.1248 21.0497C25.85 21.3248 26.45 21.825 26.8752 22.4747C27.2744 23.1469 27.4739 23.9189 27.4503 24.7003C27.4503 25.8 27.2 26.6503 26.675 27.2752C26.1247 27.9 25.4248 28.3753 24.6252 28.6003C23.6998 28.9003 22.7248 29.0498 21.7498 29.0498H20.4247C20.1247 29.0498 19.8003 29.025 19.4502 29.0002V20.6002C19.625 20.5748 19.9752 20.55 20.4753 20.5753C20.9502 20.55 21.5248 20.55 22.175 20.55C22.303 20.5467 22.4309 20.5463 22.558 20.5491ZM43.5252 21.8255C41.75 21.8255 40.2748 22.1002 39.1002 22.7002C38.0253 23.2003 37.1 24 36.4752 24.9998C35.9253 25.9252 35.6248 26.9498 35.6248 28.0252C35.6034 28.9096 35.801 29.7856 36.2 30.5752C36.6677 31.4159 37.3168 32.1417 38.1003 32.7C39.2001 33.4521 40.3935 34.0572 41.6502 34.5C42.875 34.9748 43.7 35.3498 44.1003 35.6747C44.5002 36 44.7003 36.3248 44.7003 36.675C44.7003 37.125 44.4252 37.5502 44.0253 37.725C43.5753 37.95 42.9003 38.0752 41.9502 38.0752C40.9503 38.0752 39.95 37.95 38.9998 37.7002C37.9089 37.4563 36.863 37.043 35.9 36.4753C35.825 36.4252 35.75 36.4003 35.675 36.4505C35.6 36.5002 35.5752 36.6 35.5752 36.675V41.025C35.5503 41.2252 35.675 41.4 35.8503 41.4998C36.661 41.8786 37.5185 42.1477 38.4003 42.3C39.5253 42.525 40.6498 42.6248 41.7997 42.6248C43.5997 42.6248 45.1002 42.3502 46.325 41.8252C47.45 41.3752 48.425 40.6003 49.1248 39.6C49.78 38.6165 50.1201 37.4567 50.0998 36.2752C50.1243 35.3826 49.9268 34.4978 49.5252 33.7003C49.0498 32.85 48.3748 32.1502 47.5498 31.6252C46.3429 30.8673 45.0506 30.2546 43.7 29.7998C43.0968 29.5503 42.5045 29.2751 41.9248 28.9748C41.6 28.8 41.3 28.575 41.075 28.2998C40.925 28.0997 40.8252 27.8752 40.8252 27.6502C40.8252 27.4252 40.9002 27.1753 41.0248 26.9752C41.2002 26.7253 41.4748 26.55 41.7997 26.475C42.275 26.3503 42.8 26.2748 43.2997 26.2997C44.2498 26.2997 45.1747 26.4248 46.1 26.625C46.9503 26.7998 47.75 27.075 48.5 27.4753C48.5998 27.525 48.725 27.525 48.95 27.4753C48.9892 27.4465 49.0209 27.4087 49.0427 27.3652C49.0645 27.3217 49.0756 27.2737 49.0752 27.225V23.1502C49.0752 23.0498 49.0498 22.95 49.025 22.8502C48.9748 22.7503 48.875 22.65 48.7752 22.6252C48.0857 22.3432 47.3632 22.1499 46.625 22.05C45.5985 21.9005 44.5625 21.8258 43.5252 21.8255Z" fill="#31A8FF"/>
</g>
<defs>
<clipPath id="clip0_128_134">
<rect width="60" height="60" fill="white" transform="translate(0.5)"/>
</clipPath>
</defs>
</svg>
