<svg width="61" height="60" viewBox="0 0 61 60" fill="none" xmlns="http://www.w3.org/2000/svg">
<path d="M44.473 43.1775C44.8409 40.1152 44.7308 39.6656 47.0117 40.162L47.5906 40.2127C49.3447 40.2924 51.6392 39.9305 52.9874 39.3042C55.8894 37.9575 57.6097 35.7099 54.7489 36.3C48.222 37.6467 47.7734 35.4366 47.7734 35.4366C54.6655 25.2108 57.5464 12.2297 55.0592 9.05204C48.2764 0.385316 36.5356 4.4836 36.3392 4.58953L36.2764 4.60125C34.9869 4.3336 33.5436 4.17375 31.9222 4.1475C28.9686 4.09875 26.7275 4.92188 25.0273 6.21094C25.0273 6.21094 4.08219 -2.41828 5.05672 17.063C5.26391 21.2072 10.9967 48.4214 17.8348 40.2014C20.3342 37.1958 22.7492 34.6542 22.7492 34.6542C23.9483 35.4506 25.3845 35.8575 26.8902 35.7113L27.0069 35.6119C26.9703 35.985 26.9863 36.3502 27.0533 36.7823C25.2922 38.7506 25.8097 39.0961 22.288 39.8208C18.7245 40.5548 20.818 41.8622 22.1844 42.2039C23.8414 42.6183 27.6744 43.2052 30.2647 39.5798L30.1616 39.9933C30.8525 40.5464 30.8061 43.9669 30.9036 46.4105C31.0016 48.8545 31.1652 51.135 31.6634 52.4798C32.1617 53.8242 32.7495 57.2873 37.378 56.2955C41.2461 55.4686 44.2034 54.2756 44.473 43.1775Z" fill="black"/>
<path d="M35.8709 58.7138C33.8239 58.7138 32.4908 57.922 31.6812 57.1575C30.4592 56.0044 29.9745 54.5189 29.6848 53.6316L29.5597 53.2613C28.9766 51.6872 28.7787 49.4208 28.6616 46.5023C28.6437 46.0641 28.6316 45.6127 28.618 45.1341C28.6081 44.7839 28.5959 44.3447 28.5781 43.8853C27.8406 44.237 27.0578 44.4843 26.2522 44.6203C24.8089 44.8669 23.2573 44.7872 21.6397 44.3827C20.4983 44.0972 19.3123 43.5056 18.6364 42.592C16.6662 44.3175 14.787 44.0836 13.7633 43.7419C11.9572 43.1395 10.3409 41.4469 8.82171 38.5683C7.73937 36.5175 6.69265 33.8456 5.71015 30.6263C3.99921 25.02 2.91218 19.1152 2.81562 17.1764C2.51187 11.1084 4.14546 6.76875 7.66999 4.27922C13.2298 0.352035 21.6537 2.66157 24.725 3.71016C26.7884 2.46657 29.2161 1.86141 31.9592 1.905C33.4325 1.92891 34.8355 2.05829 36.1386 2.29079C37.498 1.86329 40.183 1.24969 43.2566 1.28813C48.9195 1.35563 53.6122 3.5625 56.8264 7.67016C59.1205 10.6008 57.9861 16.755 57.1062 20.1628C55.8678 24.9563 53.698 30.0544 51.0326 34.4925C51.7564 34.4977 52.805 34.4109 54.2956 34.103C57.2366 33.4959 58.0967 35.0728 58.3302 35.7788C59.2653 38.6109 55.2003 40.7513 53.9323 41.34C52.3076 42.0942 49.6587 42.5536 47.4894 42.4542L47.3947 42.4481L46.8247 42.398L46.7684 42.8733L46.7141 43.3378C46.5683 48.9623 45.7648 52.5244 44.1116 54.878C42.3786 57.3455 39.9701 58.0369 37.8486 58.4916C37.1248 58.6463 36.4672 58.7138 35.8709 58.7138ZM31.5631 38.243C32.8845 39.3005 33.0003 41.2903 33.1039 45.0089C33.117 45.473 33.1292 45.9122 33.1456 46.3223C33.1953 47.5645 33.312 50.4731 33.7676 51.7022C33.8319 51.8761 33.8895 52.0523 33.9505 52.2394C34.4581 53.7938 34.7126 54.5733 36.9078 54.1041C38.7505 53.7089 39.6978 53.3545 40.4394 52.2989C41.517 50.7642 42.1198 47.677 42.2305 43.1231L44.4725 43.1775L42.2459 42.9103L42.3116 42.3544C42.5248 40.5216 42.6786 39.1978 43.9034 38.3222C44.8864 37.62 46.0062 37.688 46.8983 37.8488C45.9181 37.1081 45.6472 36.2395 45.575 35.8833L45.388 34.9622L45.9134 34.1827C48.9402 29.692 51.4358 24.173 52.7614 19.0402C54.1236 13.7663 53.7083 10.9655 53.293 10.4358C47.795 3.41063 38.2611 6.31125 37.2655 6.64032L37.0972 6.73125L36.2534 6.88829L35.8212 6.79875C34.6297 6.55125 33.3059 6.41438 31.887 6.39141C29.6576 6.35391 27.8591 6.88078 26.3844 7.99969L25.3611 8.77547L24.1737 8.28657C21.6369 7.24922 14.1856 5.16375 10.2537 7.9486C8.07124 9.49454 7.07702 12.5236 7.29827 16.9519C7.3714 18.4139 8.36468 23.9484 10.0034 29.3161C12.268 36.7341 14.3258 39.1983 15.185 39.4847C15.335 39.5353 15.7241 39.233 16.1112 38.768C17.7256 36.8327 19.3973 34.9459 21.1241 33.1102L22.4225 31.7438L23.9923 32.7867C24.6251 33.2072 25.3231 33.4458 26.0398 33.4908L29.7837 30.2977L29.2414 35.8327C29.2292 35.9569 29.2231 36.1261 29.2719 36.4402L29.435 37.4892L28.7272 38.2805L28.6456 38.3723L30.7025 39.3216L31.5631 38.243Z" fill="black"/>
<path d="M54.7489 36.3C48.2216 37.6467 47.773 35.4365 47.773 35.4365C54.665 25.2103 57.5459 12.2287 55.0597 9.05202C48.2769 0.385767 36.5352 4.48405 36.3392 4.59045L36.2759 4.6017C34.9864 4.33405 33.5431 4.17467 31.9208 4.14842C28.9672 4.10014 26.727 4.9228 25.0269 6.21186C25.0269 6.21186 4.08126 -2.41689 5.05532 17.0639C5.26251 21.2086 10.9953 48.4228 17.8334 40.2028C20.3328 37.1972 22.7474 34.6556 22.7474 34.6556C23.9469 35.452 25.3827 35.8589 26.8878 35.7126L27.005 35.6133C26.9684 35.9864 26.9853 36.3516 27.0519 36.7837C25.2903 38.752 25.8078 39.0975 22.2861 39.8222C18.7227 40.5562 20.8161 41.8636 22.183 42.2053C23.8395 42.6197 27.673 43.2066 30.2628 39.5812L30.1592 39.9947C30.8497 40.5478 31.3344 43.5909 31.2533 46.3495C31.1717 49.1081 31.1173 51.0023 31.6616 52.4817C32.2053 53.9611 32.7472 57.2892 37.3766 56.2973C41.2447 55.4686 43.2491 53.3203 43.5284 49.7372C43.7263 47.1895 44.1739 47.5664 44.2025 45.2887L44.562 44.2106C44.9764 40.7573 44.6277 39.6436 47.0113 40.1615L47.5902 40.2122C49.3442 40.2919 51.6397 39.93 52.9874 39.3037C55.8889 37.958 57.6097 35.7098 54.7489 36.3Z" fill="#336791"/>
<path d="M36.1049 57.3314C32.2461 57.3314 31.0236 54.2756 30.5235 53.0259C29.7913 51.1945 29.6333 44.0873 29.7964 38.2589C29.7988 38.1606 29.8207 38.0638 29.8607 37.974C29.9007 37.8842 29.9581 37.8032 30.0296 37.7356C30.101 37.6681 30.1851 37.6153 30.2771 37.5805C30.369 37.5456 30.4669 37.5292 30.5652 37.5323C30.6633 37.535 30.76 37.557 30.8497 37.5971C30.9394 37.6371 31.0202 37.6945 31.0877 37.7659C31.1552 37.8372 31.208 37.9212 31.243 38.0129C31.278 38.1047 31.2945 38.2025 31.2917 38.3006C31.1038 45.023 31.3705 51.1148 31.9124 52.4705C32.758 54.5841 34.0405 56.4328 37.6663 55.6561C41.1083 54.9178 42.3974 53.6128 42.9716 50.2842C43.4122 47.73 44.2836 40.4634 44.391 39.0295C44.3981 38.9315 44.4246 38.8359 44.4688 38.7482C44.513 38.6604 44.5741 38.5823 44.6485 38.5182C44.723 38.4541 44.8094 38.4053 44.9027 38.3746C44.9961 38.344 45.0945 38.3321 45.1925 38.3395C45.3902 38.3545 45.5739 38.4473 45.7033 38.5976C45.8327 38.7479 45.8971 38.9433 45.8825 39.1411C45.7705 40.6341 44.9033 47.8866 44.4458 50.5387C43.768 54.4702 42.0153 56.2533 37.9799 57.1186C37.2941 57.2653 36.6711 57.3309 36.1049 57.3314ZM15.1817 42.4059C14.8444 42.4048 14.5095 42.3494 14.1899 42.2419C11.6835 41.4056 9.29611 37.3237 7.09392 30.1083C5.41767 24.6159 4.35548 18.8831 4.2622 17.0198C3.98611 11.4961 5.40829 7.58812 8.49032 5.40516C14.5874 1.08516 24.8441 5.19891 25.2777 5.37609C25.4614 5.45112 25.6077 5.59604 25.6845 5.77898C25.7614 5.96191 25.7624 6.16788 25.6874 6.35156C25.6123 6.53525 25.4674 6.6816 25.2845 6.75843C25.1015 6.83526 24.8956 6.83628 24.7119 6.76125C24.613 6.72094 14.7777 2.78062 9.35189 6.62766C6.71658 8.49609 5.50673 11.9677 5.75564 16.9453C5.83392 18.5152 6.82626 24.1102 8.52408 29.6714C10.49 36.113 12.7274 40.1775 14.6628 40.823C14.9666 40.9242 15.891 41.2322 17.2124 39.6431C18.7533 37.7924 20.3521 35.9906 22.0063 34.2403C22.1447 34.1023 22.3316 34.0239 22.5271 34.0219C22.7226 34.02 22.9111 34.0946 23.0522 34.2299C23.1934 34.3651 23.276 34.5503 23.2823 34.7456C23.2887 34.941 23.2183 35.1312 23.0863 35.2753C23.0638 35.2987 20.8142 37.6505 18.3627 40.5998C17.2016 41.9963 16.0888 42.4059 15.1817 42.4059ZM47.7266 36.1036C47.591 36.1034 47.458 36.0664 47.3418 35.9965C47.2256 35.9265 47.1306 35.8264 47.067 35.7066C47.0033 35.5869 46.9734 35.4521 46.9805 35.3167C46.9875 35.1813 47.0312 35.0503 47.1069 34.9378C54.0739 24.5995 56.5194 12.1078 54.425 9.43125C51.7888 6.06281 48.0664 4.30359 43.3606 4.20187C39.8764 4.12687 37.107 5.01656 36.6542 5.17172L36.5403 5.21812C36.0852 5.36109 35.736 5.11172 35.6042 4.82016C35.5291 4.65311 35.5177 4.46435 35.5722 4.28949C35.6267 4.11463 35.7433 3.96575 35.9 3.87094C35.9216 3.85828 35.99 3.82922 36.1011 3.78844C36.8703 3.50672 39.6819 2.66297 43.1642 2.70281C48.3711 2.75812 52.6724 4.76578 55.602 8.50969C56.9881 10.2811 56.9914 14.362 55.611 19.7067C54.2038 25.1559 51.5558 31.012 48.3467 35.7741C48.2033 35.9883 47.967 36.1036 47.7266 36.1036ZM48.0828 40.8895C46.8931 40.8895 45.8267 40.7217 45.1883 40.3392C44.532 39.9459 44.4069 39.4116 44.3905 39.128C44.2114 35.9827 45.9467 35.4352 46.8317 35.1853C46.7085 34.9987 46.5331 34.7794 46.3517 34.553C45.8356 33.908 45.1288 33.0248 44.5841 31.7039C44.4988 31.4977 44.2316 31.0181 43.9222 30.4627C42.2445 27.4542 38.7538 21.1941 40.9963 17.9883C42.0341 16.5047 44.1008 15.9206 47.1458 16.2464C46.25 13.5173 41.9844 4.98047 31.8627 4.81453C28.8186 4.76391 26.322 5.7 24.4461 7.59422C20.2461 11.8359 20.398 19.5108 20.4003 19.5877C20.4029 19.6858 20.3861 19.7836 20.3509 19.8753C20.3158 19.967 20.2629 20.0508 20.1953 20.1221C20.1277 20.1933 20.0467 20.2506 19.957 20.2906C19.8673 20.3305 19.7705 20.3524 19.6724 20.355C19.5742 20.3576 19.4764 20.3408 19.3847 20.3056C19.293 20.2704 19.2092 20.2175 19.1379 20.1499C19.0667 20.0823 19.0094 20.0014 18.9695 19.9116C18.9295 19.8219 18.9076 19.7252 18.905 19.627C18.8956 19.2862 18.7391 11.2322 23.3834 6.54141C25.557 4.34625 28.4183 3.2625 31.8875 3.31922C38.3628 3.42562 42.531 6.71766 44.8869 9.46031C47.4552 12.4495 48.7142 15.7467 48.8178 16.8473C48.8952 17.6658 48.3078 17.8294 48.1892 17.8537L47.9192 17.8598C44.931 17.3812 43.0138 17.7136 42.2211 18.8461C40.5153 21.2841 43.8177 27.2058 45.2277 29.7347C45.5877 30.3797 45.8474 30.8461 45.9664 31.1339C46.4295 32.257 47.0338 33.0117 47.5189 33.6183C47.9459 34.1517 48.3158 34.6144 48.448 35.1572C48.5094 35.265 49.3808 36.5541 54.5516 35.4867C55.8477 35.2195 56.6249 35.4478 56.8625 36.1664C57.3299 37.5797 54.7077 39.2283 53.256 39.9023C51.9552 40.507 49.8791 40.8895 48.0828 40.8895ZM45.8816 39.0047C46.0456 39.1702 46.8664 39.4556 48.5661 39.3825C50.0774 39.3178 51.6711 38.9892 52.6274 38.5453C53.8503 37.9772 54.6669 37.342 55.0897 36.9084L54.8553 36.9516C51.5492 37.6341 49.2106 37.5431 47.9047 36.6811C47.817 36.6231 47.7325 36.5603 47.6516 36.4931C47.51 36.5489 47.3792 36.5855 47.2859 36.6117C46.5453 36.8194 45.7794 37.0345 45.8816 39.0047ZM24.5244 43.1836C23.7031 43.1836 22.8388 43.0716 21.9561 42.8508C21.0416 42.622 19.4999 41.9334 19.5233 40.8023C19.55 39.5334 21.3955 39.1528 22.0902 39.0098C24.5999 38.4928 24.7635 38.2856 25.5477 37.2895C25.7764 36.9994 26.061 36.638 26.4491 36.2048C27.0252 35.5598 27.6547 35.2331 28.3203 35.2331C28.7839 35.2331 29.1641 35.3902 29.4153 35.4947C30.216 35.8266 30.8839 36.6291 31.1586 37.5886C31.4066 38.4544 31.288 39.2878 30.8258 39.9352C29.3085 42.06 27.1292 43.1836 24.5244 43.1836ZM21.1391 40.8666C21.3645 41.0409 21.8164 41.2739 22.3194 41.3995C23.0839 41.5908 23.8255 41.6878 24.5249 41.6878C26.6558 41.6878 28.3667 40.8056 29.6094 39.0656C29.8686 38.7028 29.7908 38.242 29.7214 37.9997C29.5761 37.492 29.2152 37.0303 28.8435 36.8761C28.6419 36.7927 28.4745 36.7289 28.3208 36.7289C28.2383 36.7289 27.987 36.7289 27.5642 37.2019C27.2725 37.53 26.992 37.868 26.7233 38.2153C25.7464 39.4556 25.2988 39.8766 22.3925 40.4752C21.6833 40.6205 21.3195 40.7686 21.1391 40.8666ZM26.8902 37.4166C26.7116 37.4163 26.5391 37.3521 26.4037 37.2357C26.2683 37.1193 26.179 36.9584 26.1519 36.7819C26.1333 36.6577 26.1208 36.5327 26.1144 36.4073C24.2094 36.3717 22.3714 35.5542 20.976 34.0983C19.2116 32.2575 18.4086 29.707 18.7733 27.1012C19.1694 24.2714 19.0213 21.7734 18.9416 20.4314C18.9195 20.0583 18.9036 19.7887 18.9045 19.6022C18.906 19.3655 18.9106 18.7378 21.0088 17.6742C21.755 17.2959 23.2513 16.6359 24.8858 16.4667C27.5938 16.1869 29.3788 17.393 29.9131 19.8633C31.3555 26.5327 30.0275 29.4825 29.0577 31.6369C28.8772 32.0381 28.7066 32.4169 28.5702 32.7839L28.4497 33.1073C27.9374 34.4812 27.4944 35.6681 27.6303 36.5545C27.6453 36.6516 27.6409 36.7507 27.6175 36.8461C27.5942 36.9415 27.5522 37.0313 27.4941 37.1105C27.436 37.1897 27.3628 37.2567 27.2788 37.3076C27.1948 37.3585 27.1016 37.3923 27.0045 37.4072L26.8902 37.4166ZM20.405 19.8094L20.4341 20.3433C20.5166 21.7373 20.6703 24.3314 20.2541 27.3089C19.9536 29.4581 20.6099 31.5558 22.0555 33.0633C23.1978 34.2548 24.7011 34.9125 26.2461 34.9125H26.278C26.451 34.1836 26.7383 33.4139 27.0477 32.5847L27.1672 32.2631C27.3214 31.8488 27.5019 31.4475 27.6931 31.0228C28.6264 28.9491 29.7885 26.3677 28.4502 20.1797C28.1853 18.9539 27.5427 18.2447 26.4866 18.0108C24.3172 17.5317 21.0842 19.1634 20.405 19.8094ZM24.9191 19.492C24.8816 19.7564 25.4033 20.4623 26.0839 20.5566C26.7631 20.6517 27.3444 20.0995 27.3814 19.8352C27.4184 19.5708 26.8972 19.2792 26.2166 19.1845C25.5364 19.0898 24.9552 19.2277 24.9191 19.492ZM26.24 20.8167L26.0492 20.8036C25.6274 20.745 25.2008 20.4792 24.9088 20.092C24.8061 19.9561 24.6388 19.6927 24.672 19.4573C24.7194 19.1123 25.1403 18.9056 25.797 18.9056C25.9438 18.9056 26.0966 18.9164 26.2503 18.938C26.6094 18.9877 26.9427 19.0912 27.1888 19.2286C27.6153 19.4667 27.6467 19.7325 27.6275 19.8698C27.575 20.2509 26.9689 20.8167 26.24 20.8167ZM25.167 19.5361C25.1881 19.6992 25.5922 20.2373 26.1181 20.31L26.2405 20.3184C26.7261 20.3184 27.0889 19.9364 27.1316 19.8112C27.0866 19.7259 26.7744 19.5141 26.1824 19.4316C26.0549 19.4133 25.9263 19.404 25.7975 19.4039C25.4169 19.4039 25.2149 19.4897 25.167 19.5361ZM45.6069 18.9525C45.6439 19.2169 45.1227 19.9228 44.4425 20.0175C43.7628 20.1122 43.1811 19.5605 43.1436 19.2961C43.108 19.0317 43.6292 18.7397 44.3089 18.6455C44.9886 18.5503 45.5694 18.6886 45.6069 18.9525ZM44.2855 20.1525C43.6311 20.1525 43.0663 19.6434 43.0199 19.313C42.966 18.9164 43.6189 18.615 44.2911 18.5217C44.4392 18.5011 44.5859 18.4908 44.727 18.4908C45.3074 18.4908 45.6917 18.6609 45.7302 18.9356C45.755 19.1133 45.6186 19.3875 45.3838 19.635C45.2286 19.7977 44.9028 20.0794 44.4589 20.1408L44.2855 20.1525ZM44.7275 18.7402C44.5981 18.7402 44.4631 18.75 44.3263 18.7687C43.6508 18.863 43.2477 19.1339 43.2674 19.2792C43.2899 19.4391 43.7211 19.9036 44.286 19.9036L44.4252 19.8937C44.7941 19.8427 45.0711 19.6017 45.2033 19.463C45.4109 19.245 45.4935 19.0397 45.4836 18.9698C45.4705 18.877 45.2211 18.7402 44.7275 18.7402ZM46.5861 34.1353C46.4506 34.1354 46.3176 34.0986 46.2014 34.0289C46.0852 33.9592 45.9901 33.8593 45.9264 33.7397C45.8626 33.6201 45.8326 33.4855 45.8395 33.3501C45.8463 33.2148 45.8899 33.0839 45.9655 32.9714C47.5583 30.5925 47.2667 28.1667 46.985 25.8206C46.8645 24.8212 46.7408 23.7877 46.7727 22.7958C46.8055 21.7753 46.9353 20.9334 47.0605 20.1192C47.2091 19.1545 47.3497 18.2433 47.2916 17.1614C47.2863 17.0633 47.3004 16.9652 47.333 16.8726C47.3656 16.78 47.4162 16.6947 47.4818 16.6216C47.5474 16.5485 47.6267 16.4891 47.7153 16.4466C47.8039 16.4042 47.8999 16.3797 47.998 16.3744C48.096 16.3691 48.1942 16.3832 48.2868 16.4158C48.3794 16.4484 48.4647 16.499 48.5378 16.5646C48.6109 16.6302 48.6703 16.7095 48.7127 16.7981C48.7552 16.8867 48.7797 16.9827 48.785 17.0808C48.8516 18.3173 48.6927 19.3486 48.5389 20.3466C48.4203 21.1167 48.2975 21.9131 48.268 22.8436C48.2394 23.722 48.3514 24.6548 48.47 25.642C48.77 28.1367 49.1099 30.9642 47.2086 33.8034C47.1401 33.9057 47.0475 33.9895 46.9389 34.0474C46.8303 34.1052 46.7092 34.1355 46.5861 34.1353Z" fill="white"/>
</svg>
