<svg width="61" height="60" viewBox="0 0 61 60" fill="none" xmlns="http://www.w3.org/2000/svg">
<path d="M11.1266 22.0312H57.8469V56.5641H11.1266V22.0312Z" fill="white"/>
<path d="M1.20312 29.9578V59.2547H59.7969V0.66095H1.20312V29.9578ZM48.4203 27.6141C49.8237 27.9397 51.0992 28.6737 52.0859 29.7234C52.6292 30.289 53.1014 30.9186 53.4922 31.5984C53.4922 31.6735 50.9609 33.3844 49.4188 34.3406C49.3625 34.3781 49.1375 34.1344 48.8891 33.7641C48.6075 33.2783 48.2075 32.8718 47.7264 32.5824C47.2452 32.293 46.6986 32.1303 46.1375 32.1094C44.3609 31.9875 43.2172 32.9203 43.2266 34.4531C43.2119 34.8348 43.2993 35.2134 43.4797 35.55C43.8688 36.3609 44.5953 36.8438 46.8734 37.8281C51.0687 39.6328 52.8641 40.8234 53.9797 42.5156C55.2266 44.3906 55.5031 47.4188 54.6594 49.6594C53.7219 52.0969 51.425 53.7516 48.1766 54.3C46.6929 54.4699 45.1938 54.4542 43.7141 54.2531C41.4461 53.8793 39.3569 52.7904 37.7516 51.1453C37.2125 50.55 36.1625 48.9984 36.2281 48.8859C36.3992 48.7589 36.5794 48.6446 36.7672 48.5438L38.9375 47.3438L40.6203 46.3688L40.9719 46.8891C41.5652 47.7378 42.3203 48.461 43.1938 49.0172C45.0688 50.0016 47.6281 49.8656 48.8937 48.7266C49.3187 48.3092 49.5838 47.756 49.6429 47.1633C49.702 46.5706 49.5513 45.9759 49.2172 45.4828C48.7484 44.8313 47.8109 44.2828 45.1906 43.1391C42.1672 41.8359 40.8641 41.0297 39.6734 39.7453C38.9302 38.8978 38.3814 37.8978 38.0656 36.8156C37.8301 35.5793 37.7953 34.3131 37.9625 33.0656C38.5859 30.1453 40.775 28.1063 43.9719 27.5016C45.4524 27.3184 46.9521 27.3595 48.4203 27.6234V27.6141ZM34.6672 30.0703V32.4703H27.0594V54.1406H21.6641V32.4656H14.0375V30.1219C14.0137 29.3136 14.0325 28.5047 14.0938 27.6985C14.1313 27.6563 18.7812 27.6563 24.4062 27.6563H34.6391L34.6672 30.0703Z" fill="#007ACC"/>
</svg>
